<svg xmlns="http://www.w3.org/2000/svg" width="512" height="512" viewBox="0 0 128 128"><title>Avior Studio — enso variations</title><defs><clipPath id="wbk1"><circle cx="64" cy="58" r="51"/></clipPath><clipPath id="rfk1"><path d="M0 92H128V128H0Z"/></clipPath></defs><path d="M16.80 85.25 L14.93 82.03 L13.28 78.68 L11.90 75.21 L10.77 71.64 L9.92 67.99 L9.34 64.29 L9.02 60.55 L8.95 56.80 L9.12 53.05 L9.53 49.31 L10.17 45.60 L11.04 41.93 L12.14 38.32 L13.48 34.78 L15.07 31.33 L16.90 28.00 L18.98 24.80 L21.29 21.76 L23.82 18.90 L26.55 16.23 L29.47 13.75 L32.54 11.47 L35.76 9.39 L39.11 7.52 L42.57 5.87 L46.14 4.43 L49.80 3.23 L53.55 2.27 L57.35 1.58 L61.21 1.16 L65.09 1.01 L68.97 1.15 L72.84 1.56 L76.68 2.25 L80.46 3.19 L84.18 4.40 L87.81 5.84 L91.34 7.52 L94.76 9.43 L98.05 11.56 L101.20 13.91 L104.19 16.47 L107.00 19.24 L109.61 22.20 L112.01 25.35 L114.18 28.66 L116.13 32.12 L117.82 35.71 L119.28 39.40 L120.48 43.20 L121.43 47.07 L122.11 50.99 L122.54 54.96 L122.70 58.96 L122.58 62.96 L122.19 66.96 L121.53 70.92 L120.59 74.83 L119.39 78.67 L117.92 82.43 L116.19 86.08 L114.22 89.61 L112.02 93.01 L109.58 96.25 L101.15 89.18 L103.25 86.62 L105.18 83.92 L106.91 81.09 L108.45 78.14 L109.79 75.09 L110.92 71.96 L111.84 68.74 L112.55 65.47 L113.03 62.16 L113.29 58.81 L113.32 55.44 L113.11 52.08 L112.67 48.73 L111.99 45.42 L111.09 42.16 L109.95 38.96 L108.61 35.85 L107.05 32.83 L105.30 29.92 L103.35 27.12 L101.22 24.45 L98.92 21.92 L96.44 19.55 L93.81 17.35 L91.02 15.33 L88.09 13.51 L85.04 11.91 L81.87 10.53 L78.61 9.37 L75.27 8.44 L71.88 7.74 L68.44 7.26 L64.97 7.01 L61.49 6.97 L58.01 7.16 L54.54 7.58 L51.10 8.23 L47.70 9.11 L44.37 10.24 L41.13 11.62 L37.99 13.22 L34.97 15.06 L32.09 17.11 L29.36 19.35 L26.78 21.78 L24.36 24.36 L22.10 27.10 L20.01 29.98 L18.10 32.98 L16.39 36.11 L14.89 39.36 L13.61 42.72 L12.59 46.16 L11.82 49.68 L11.31 53.25 L11.08 56.85 L11.10 60.45 L11.37 64.05 L11.88 67.63 L12.61 71.17 L13.56 74.66 L14.71 78.10 L16.08 81.47 L17.67 84.75Z" fill="#ffffff" fill-opacity="1"/><g clip-path="url(#wbk1)"><g clip-path="url(#rfk1)" opacity="0.28"><g transform="translate(0 128.8) scale(1 -0.4)"><g><path d="M55 58 L54 88 L52 92 L57 92 L58 88 L59 58 Z" fill="#ffffff" fill-opacity="1"/><path d="M66 58 L66 86 L69 92 L74 92 L71 85 L71 58 Z" fill="#ffffff" fill-opacity="1"/><path d="M34 64 C39 54 45 43 58 42 C65 41 70 45 73 42 C76 39 70 31 73 24 C76 17 84 18 87 23 C89 27 85 31 82 31 C80 39 85 46 76 52 C71 56 68 66 55 68 C46 71 39 69 31 73 Z" fill="#ffffff" fill-opacity="1"/><path d="M84 25 C98 35 104 47 102 60 C100 48 92 37 82 31 Z" fill="#ffffff" fill-opacity="1"/></g></g></g></g><g><path d="M55 58 L54 88 L52 92 L57 92 L58 88 L59 58 Z" fill="#ffffff" fill-opacity="1"/><path d="M66 58 L66 86 L69 92 L74 92 L71 85 L71 58 Z" fill="#ffffff" fill-opacity="1"/><path d="M34 64 C39 54 45 43 58 42 C65 41 70 45 73 42 C76 39 70 31 73 24 C76 17 84 18 87 23 C89 27 85 31 82 31 C80 39 85 46 76 52 C71 56 68 66 55 68 C46 71 39 69 31 73 Z" fill="#ffffff" fill-opacity="1"/><path d="M84 25 C98 35 104 47 102 60 C100 48 92 37 82 31 Z" fill="#ffffff" fill-opacity="1"/></g><g transform="translate(0.00,-2.00)"><g opacity="0.5"><path d="M40 96 Q62 99 84 95" fill="none" stroke="#1d1d21" stroke-width="1.4" stroke-linecap="round" stroke-linejoin="round" stroke-opacity="1"/><path d="M40 96 Q62 99 84 95" fill="none" stroke="#ffffff" stroke-width="1.4" stroke-linecap="round" stroke-linejoin="round" stroke-opacity="1"/></g><g opacity="0.5"><path d="M47 103 Q62 101 80 103" fill="none" stroke="#1d1d21" stroke-width="1.1" stroke-linecap="round" stroke-linejoin="round" stroke-opacity="1"/><path d="M47 103 Q62 101 80 103" fill="none" stroke="#ffffff" stroke-width="1.1" stroke-linecap="round" stroke-linejoin="round" stroke-opacity="1"/></g><g opacity="0.5"><path d="M52 110 Q62 112 74 110" fill="none" stroke="#1d1d21" stroke-width="0.9" stroke-linecap="round" stroke-linejoin="round" stroke-opacity="1"/><path d="M52 110 Q62 112 74 110" fill="none" stroke="#ffffff" stroke-width="0.9" stroke-linecap="round" stroke-linejoin="round" stroke-opacity="1"/></g></g></svg>